<svg aria-hidden="true" style="position: absolute; width: 0; height: 0; overflow: hidden;" version="1.1" xmlns="http://www.w3.org/2000/svg" xmlns:xlink="http://www.w3.org/1999/xlink">
<defs>
<symbol id="icon-youtube" viewBox="0 0 32 32">
<path d="M31.333 8.675c-0.192-0.67-0.546-1.242-1.019-1.691l-0.002-0.002c-0.485-0.461-1.087-0.805-1.756-0.982l-0.028-0.006c-2.504-0.661-12.536-0.661-12.536-0.661-0.344-0.004-0.751-0.007-1.158-0.007-4.003 0-7.952 0.23-11.835 0.678l0.473-0.044c-0.697 0.197-1.298 0.548-1.786 1.014l0.002-0.002c-0.476 0.456-0.835 1.030-1.030 1.675l-0.007 0.027c-0.415 2.129-0.652 4.578-0.652 7.082 0 0.085 0 0.171 0.001 0.256l-0-0.013c-0.016 2.454 0.202 4.907 0.651 7.325 0.182 0.64 0.538 1.222 1.034 1.693 0.494 0.47 1.11 0.81 1.787 0.99 2.538 0.659 12.52 0.659 12.52 0.659 4.187 0.048 8.374-0.163 12.536-0.627 0.669-0.173 1.283-0.512 1.784-0.989 0.493-0.472 0.843-1.056 1.019-1.694 0.461-2.414 0.685-4.869 0.669-7.326 0.002-0.147 0.003-0.32 0.003-0.494 0-2.428-0.244-4.799-0.709-7.089l0.039 0.228zM12.803 20.565v-9.13l8.346 4.566-8.346 4.563z"></path>
</symbol>
<symbol id="icon-vk" viewBox="0 0 32 32">
<path d="M31.95 7.816c0.272 0.736-0.565 2.451-2.507 5.147-0.272 0.368-0.622 0.858-1.050 1.47-0.894 1.144-1.4 1.899-1.515 2.267-0.195 0.49-0.117 0.96 0.232 1.408 0.195 0.246 0.642 0.736 1.341 1.472h0.059v0.061c1.594 1.51 2.662 2.798 3.206 3.859l0.117 0.246 0.117 0.459v0.582l-0.408 0.459-0.992 0.214-4.256 0.122c-0.272 0.042-0.592 0-0.962-0.122-0.323-0.099-0.603-0.224-0.863-0.378l0.019 0.010-0.352-0.245c-0.437-0.328-0.819-0.691-1.156-1.093l-0.009-0.011c-0.333-0.378-0.704-0.816-1.068-1.261l-0.068-0.086c-0.302-0.38-0.637-0.712-1.008-1.001l-0.013-0.010c-0.35-0.266-0.661-0.357-0.933-0.275-0.038 0-0.088 0.021-0.146 0.061-0.107 0.086-0.203 0.176-0.291 0.273l-0.002 0.002c-0.136 0.144-0.251 0.317-0.349 0.522-0.096 0.205-0.186 0.501-0.262 0.888-0.078 0.389-0.117 0.848-0.117 1.379 0 0.163-0.019 0.317-0.058 0.459-0.040 0.144-0.078 0.256-0.117 0.336l-0.059 0.064c-0.234 0.243-0.544 0.366-0.933 0.366h-1.866c-0.816 0.080-1.642 0-2.478-0.245-0.831-0.237-1.557-0.561-2.224-0.972l0.038 0.022c-0.622-0.387-1.184-0.776-1.691-1.163-0.43-0.322-0.811-0.653-1.166-1.011l-0.001-0.001-0.408-0.429c-0.176-0.144-0.329-0.305-0.46-0.484l-0.005-0.007c-0.195-0.245-0.592-0.776-1.195-1.592-0.603-0.818-1.195-1.696-1.778-2.635-0.584-0.939-1.264-2.176-2.042-3.707-0.626-1.183-1.35-2.746-2.008-4.343l-0.148-0.406c-0.063-0.144-0.105-0.31-0.117-0.485l-0-0.004c0-0.123 0.019-0.224 0.058-0.307l0.059-0.061c0.155-0.245 0.466-0.368 0.933-0.368h4.606c0.115 0 0.232 0.032 0.349 0.093l0.291 0.154 0.059 0.061c0.196 0.128 0.341 0.32 0.406 0.545l0.002 0.007c0.234 0.571 0.496 1.173 0.787 1.808 0.291 0.632 0.515 1.112 0.67 1.44l0.234 0.488c0.349 0.694 0.67 1.298 0.96 1.808 0.293 0.512 0.555 0.909 0.789 1.195s0.466 0.51 0.699 0.674c0.234 0.163 0.427 0.245 0.584 0.245 0.155 0 0.31-0.019 0.466-0.061l0.058-0.091 0.205-0.4 0.234-0.795 0.144-1.408v-2.21c-0.039-0.478-0.101-0.908-0.185-1.329l0.012 0.073c-0.053-0.312-0.134-0.59-0.243-0.853l0.009 0.026-0.059-0.182c-0.272-0.41-0.757-0.675-1.456-0.797-0.118 0-0.080-0.144 0.115-0.429 0.195-0.205 0.408-0.368 0.642-0.491 0.582-0.326 1.904-0.469 3.965-0.429 0.894 0 1.651 0.082 2.274 0.245 0.194 0.042 0.368 0.112 0.525 0.214 0.155 0.102 0.272 0.246 0.35 0.43 0.077 0.182 0.136 0.368 0.174 0.55 0.038 0.184 0.058 0.45 0.058 0.797v0.95c-0.037 0.334-0.058 0.721-0.058 1.113 0 0.039 0 0.078 0.001 0.117l-0-0.006v1.472c0 0.122-0.010 0.368-0.029 0.736-0.019 0.366-0.029 0.653-0.029 0.856 0 0.205 0.019 0.44 0.058 0.704 0.038 0.267 0.107 0.491 0.205 0.675 0.096 0.184 0.224 0.317 0.378 0.398 0.076 0.040 0.163 0.071 0.256 0.090l0.006 0.001c0.098 0.021 0.243-0.040 0.438-0.184 0.194-0.144 0.408-0.347 0.64-0.613 0.234-0.266 0.525-0.664 0.875-1.194 0.35-0.531 0.72-1.144 1.107-1.84 0.661-1.224 1.264-2.552 1.808-3.981 0.038-0.082 0.088-0.174 0.146-0.277 0.047-0.090 0.117-0.163 0.202-0.213l0.003-0.001h0.058l0.059-0.061 0.232-0.061h0.35l4.781-0.062c0.111-0.015 0.239-0.023 0.369-0.023 0.252 0 0.496 0.031 0.73 0.090l-0.021-0.004c0.291 0.080 0.458 0.184 0.496 0.306l0.117 0.184z"></path>
</symbol>
<symbol id="icon-telegram" viewBox="0 0 32 32">
<path d="M27.552 4.957l-23.637 9.115c-1.614 0.648-1.605 1.549-0.296 1.949l6.069 1.894 14.043-8.861c0.664-0.403 1.27-0.186 0.771 0.256l-11.379 10.269-0.419 6.256c0.613 0 0.883-0.28 1.227-0.613l2.949-2.866 6.131 4.528c1.131 0.624 1.944 0.304 2.224-1.046l4.029-18.97c0.413-1.653-0.63-2.4-1.709-1.912z"></path>
</symbol>
<symbol id="icon-phone" viewBox="0 0 32 32">
<path d="M25.329 26.667c-11.375 0.016-20.008-8.72-19.996-19.996 0-0.737 0.597-1.337 1.333-1.337h3.52c0.66 0 1.221 0.485 1.319 1.139 0.256 1.692 0.729 3.216 1.396 4.63l-0.043-0.101 0.137 0.296c0.055 0.116 0.087 0.252 0.087 0.396 0 0.315-0.154 0.593-0.391 0.765l-0.003 0.002c-1.091 0.779-1.507 2.345-0.657 3.567 1.086 1.549 2.393 2.856 3.891 3.909l0.050 0.034c1.223 0.848 2.789 0.432 3.567-0.657 0.173-0.241 0.452-0.396 0.767-0.396 0.144 0 0.281 0.032 0.403 0.090l-0.006-0.002 0.295 0.136c1.437 0.667 2.963 1.123 4.529 1.355 0.653 0.097 1.139 0.659 1.139 1.32v3.519c0 0.736-0.597 1.333-1.333 1.333-0 0-0.001 0-0.001 0h-0.003z"></path>
</symbol>
<symbol id="icon-paint-gun" viewBox="0 0 32 32">
<path fill="#fff" style="fill: var(--color1, #fff)" d="M6.859 5.709c-0.087 0.087-0.159 0.2-0.159 0.251 0 0.077-0.194 0.098-1.081 0.12-1.214 0.030-1.489 0.101-2.076 0.531-0.645 0.473-0.704 0.613-2.203 5.114-1.289 3.873-1.366 4.13-1.334 4.476 0.064 0.705 0.463 1.289 1.074 1.571 0.274 0.127 0.423 0.139 1.995 0.157 1.803 0.021 1.948 0 2.036-0.293 0.019-0.064 0.225-1.547 0.458-3.299s0.462-3.276 0.51-3.389c0.047-0.113 0.199-0.305 0.337-0.427l0.251-0.221 0.044 1.19c0.075 2.021 0.289 4.606 0.477 5.761 0.040 0.245 0.042 0.246 0.292 0.21 0.842-0.123 0.779-0.099 0.741-0.285-0.142-0.695-0.384-3.531-0.462-5.415l-0.043-1.049h1.61l0.073 0.245c0.107 0.354 0.478 0.753 0.887 0.954 0.399 0.195 0.544 0.361 0.544 0.619 0 0.24-0.227 0.465-0.608 0.603-0.373 0.135-0.796 0.534-0.956 0.902-0.13 0.3-1.969 8.534-2.028 9.082-0.146 1.354 0.87 2.729 2.224 3.013 0.481 0.101 10.523 0.1 10.998-0.001 1.365-0.29 2.37-1.651 2.224-3.012-0.080-0.747-1.914-8.813-2.082-9.161-0.19-0.388-0.517-0.685-0.918-0.83l-0.011-0.004c-0.514-0.186-0.721-0.569-0.487-0.903 0.052-0.074 0.254-0.213 0.45-0.309 0.586-0.286 1.005-0.911 1.005-1.496 0-0.157 0.034-0.221 0.136-0.253 0.075-0.024 0.687-0.374 1.359-0.779l1.223-0.736h8.324l0.158-0.158c0.157-0.157 0.159-0.168 0.159-1.39s-0.001-1.234-0.159-1.391l-0.158-0.159h-11.242l-0.158 0.159c-0.087 0.087-0.159 0.203-0.159 0.258 0 0.089-0.549 0.1-5.163 0.1s-5.163-0.011-5.163-0.1c0-0.055-0.071-0.171-0.159-0.258-0.157-0.157-0.168-0.159-1.39-0.159s-1.234 0.001-1.391 0.159zM8.765 8.132v1.549h-1.033v-3.098h1.033v1.55zM27.869 7.1v0.516h-4.79l-1.923 1.157v-2.19h6.712v0.517zM30.967 7.1v0.516h-2.065v-1.033h2.065v0.517zM6.7 8.153v1.053l-0.371 0.153c-0.443 0.184-0.96 0.675-1.161 1.105-0.12 0.258-0.172 0.305-0.384 0.345-0.663 0.124-1.51 0.76-1.854 1.391-0.123 0.226-0.355 1.024-0.718 2.463-0.294 1.171-0.552 2.146-0.573 2.166s-0.11 0.005-0.199-0.037c-0.197-0.090-0.419-0.437-0.419-0.657-0-0.214 2.611-8.042 2.77-8.302 0.154-0.252 0.51-0.528 0.827-0.642 0.158-0.056 0.564-0.087 1.162-0.089l0.92-0.003v1.053zM10.314 7.616v0.517h1.033v-1.033h1.033v1.033h1.033v-1.033h1.033v1.033h1.033v-1.033h1.032v1.033h1.033v-1.033h1.033v1.033h1.033v-1.033h0.516v2.065h-10.326v-2.065h0.516v0.516zM19.608 10.383c0 0.261-0.203 0.488-0.647 0.725-0.75 0.4-1.073 1.17-0.807 1.923 0.158 0.448 0.401 0.702 0.905 0.944 0.531 0.255 0.661 0.375 0.719 0.664l0.041 0.206h-9.713l0.041-0.206c0.058-0.289 0.187-0.409 0.718-0.664 0.504-0.242 0.746-0.496 0.905-0.944 0.266-0.753-0.058-1.523-0.808-1.923-0.444-0.237-0.647-0.464-0.647-0.725v-0.185h9.294v0.185zM4.828 11.989c0 0.062-0.145 1.188-0.322 2.501s-0.322 2.395-0.322 2.405c0 0.008-0.331 0.016-0.736 0.016h-0.736l0.501-1.989c0.275-1.094 0.538-2.059 0.584-2.146 0.166-0.312 0.357-0.523 0.638-0.71 0.332-0.219 0.394-0.232 0.393-0.077zM20.082 16.022c0.020 0.080 0.389 1.728 0.82 3.663 0.849 3.814 0.859 3.897 0.577 4.462-0.192 0.383-0.421 0.617-0.805 0.821l-0.323 0.171h-10.778l-0.265-0.142c-0.416-0.223-0.663-0.461-0.84-0.811-0.308-0.608-0.303-0.647 0.555-4.501 0.431-1.935 0.799-3.583 0.819-3.663l0.036-0.145h10.169l0.037 0.145z"></path>
<path fill="#db3138" style="fill: var(--color2, #db3138)" d="M16.475 17.391c0.179-0.179 0.427-0.358 0.551-0.397 0.601-0.189 1.129-0.056 1.584 0.398 0.334 0.334 0.482 0.661 0.482 1.067 0 1.020-1.139 1.83-2.043 1.452-0.066-0.031-0.149-0.063-0.235-0.092l-0.018-0.005c-0.012 0 0.023 0.123 0.077 0.274 0.14 0.39 0.183 1.113 0.093 1.55-0.122 0.586-0.466 1.203-0.904 1.621-1.231 1.174-3.095 1.157-4.289-0.039-1.328-1.33-1.206-3.439 0.268-4.599 1.073-0.845 2.664-0.871 3.726-0.061l0.227 0.173v-0.242c0-0.437 0.14-0.757 0.482-1.099zM15.801 20.169c-0.204-0.415-0.593-0.802-1.001-0.995-0.421-0.2-1.109-0.243-1.516-0.095-1.765 0.641-1.904 3.008-0.226 3.834 0.267 0.131 0.416 0.158 0.871 0.157 0.465-0.002 0.599-0.028 0.878-0.173 0.486-0.252 0.689-0.448 0.933-0.901 0.2-0.371 0.219-0.455 0.219-0.955 0.001-0.453-0.027-0.605-0.158-0.871zM17.901 18.101c-0.1-0.1-0.232-0.159-0.358-0.159s-0.258 0.058-0.358 0.159c-0.1 0.1-0.158 0.232-0.158 0.358l0 0.001c0.004 0.14 0.064 0.266 0.158 0.357 0.1 0.1 0.232 0.158 0.358 0.158l0.001-0c0.14-0.005 0.266-0.064 0.357-0.159 0.1-0.1 0.158-0.232 0.158-0.358s-0.058-0.258-0.158-0.358z"></path>
</symbol>
<symbol id="icon-mail" viewBox="0 0 32 32">
<path d="M3.429 11.571l12.175 6.333c0.115 0.061 0.251 0.097 0.396 0.097s0.281-0.036 0.401-0.099l-0.005 0.002 12.176-6.333v11c0 0 0 0 0 0.001 0 1.978-1.546 3.595-3.495 3.708l-0.010 0-0.211 0.005h-17.713c-1.977-0-3.593-1.545-3.708-3.494l-0-0.010-0.005-0.209v-11.001zM7.143 5.715h17.715c1.977 0 3.593 1.545 3.708 3.494l0 0.010 0.007 0.209v0.211l-12.572 6.537-12.571-6.537v-0.211c0-1.977 1.545-3.593 3.494-3.708l0.010-0 0.209-0.005z"></path>
</symbol>
<symbol id="icon-logo" viewBox="0 0 32 32">
<path fill="#db3138" style="fill: var(--color2, #db3138)" d="M6.4 8h25.6v1.92h-25.6v-1.92zM0 15.040h25.6v1.92h-25.6v-1.92zM6.4 22.080h25.6v1.92h-25.6v-1.92z"></path>
</symbol>
<symbol id="icon-location" viewBox="0 0 32 32">
<path d="M16 2c-6.072 0.008-10.992 4.928-11 10.999v0.001c0 0.005 0 0.010 0 0.016 0 2.486 0.833 4.777 2.235 6.61l-0.019-0.026s0.3 0.395 0.349 0.452l8.435 9.948 8.44-9.953 0.344-0.447v-0.003c1.383-1.806 2.216-4.097 2.216-6.583 0-0.005 0-0.010 0-0.015v0.001c-0.008-6.072-4.928-10.992-10.999-11h-0.001zM16 17c-0.022 0-0.047 0.001-0.073 0.001-2.209 0-4-1.791-4-4s1.791-4 4-4c0.026 0 0.051 0 0.077 0.001l-0.004-0c2.178 0.041 3.927 1.816 3.927 3.999s-1.749 3.958-3.923 3.999l-0.004 0z"></path>
</symbol>
<symbol id="icon-guarantee" viewBox="0 0 32 32">
<path fill="#fff" style="fill: var(--color1, #fff)" d="M20.454 0.329c-1.892 0.27-3.663 1.492-4.634 3.196-0.144 0.254-0.548 1.226-0.897 2.16l-0.634 1.698h-0.543v-0.352c0-0.29-0.028-0.381-0.156-0.509-0.149-0.148-0.194-0.156-0.906-0.155-0.829 0.001-2.228 0.137-2.903 0.283-0.774 0.167-1.253 0.559-1.504 1.229-0.337 0.901 0.071 1.92 0.941 2.347 0.357 0.176 0.391 0.179 1.737 0.21l1.373 0.032-0.759 0.922c-0.855 1.039-1.271 1.627-1.568 2.216-0.163 0.323-0.224 0.393-0.311 0.355-0.059-0.027-0.351-0.135-0.648-0.241-0.494-0.177-0.611-0.193-1.367-0.196-0.94-0.004-1.428 0.112-2.225 0.526-0.617 0.321-1.514 1.217-1.825 1.824-0.619 1.207-0.714 2.414-0.291 3.702l0.133 0.407-0.828 0.84c-0.456 0.462-0.878 0.936-0.937 1.054-0.167 0.329-0.196 0.827-0.069 1.209l0.108 0.328-0.252 0.399c-0.577 0.904-1.023 1.957-1.279 3.082l-0.013 0.067c-0.119 0.541-0.14 0.879-0.166 2.732l-0.030 2.115h1.017l0.032-2.083c0.033-2.217 0.057-2.418 0.404-3.483 0.186-0.57 0.631-1.499 0.917-1.916 0.171-0.249 0.204-0.269 0.35-0.213 0.241 0.091 0.6 0.075 0.953-0.045 0.256-0.087 0.474-0.264 1.188-0.965l0.874-0.86 0.397 0.136c0.5 0.172 1.047 0.269 1.516 0.269 0.348 0 1.173-0.131 1.409-0.224 0.102-0.041 0.111 0.023 0.112 0.806 0.001 0.944 0.099 1.532 0.347 2.071l0.161 0.352v2.418c0 1.713 0.023 2.494 0.078 2.68 0.103 0.349 0.63 0.876 0.979 0.979 0.184 0.054 0.932 0.078 2.516 0.078 2.618 0 2.674-0.009 3.122-0.508 0.376-0.419 0.426-0.634 0.426-1.837 0-0.981 0.005-1.026 0.126-1.026 0.069 0 0.592 0.042 1.161 0.094 1.968 0.178 3.726 0.224 8.585 0.224h4.88v-1.006l-5.706-0.029c-6.568-0.033-7.379-0.078-10.952-0.59-2.503-0.359-3.049-0.539-3.756-1.236-0.451-0.444-0.691-0.866-0.852-1.492-0.113-0.44-0.142-2.578-0.035-2.578 0.126 0 0.95-0.843 1.202-1.23 0.445-0.683 0.77-1.686 0.77-2.377 0-0.2 0.015-0.22 0.143-0.189 0.27 0.066 2.75 0.357 3.591 0.421 0.462 0.036 1.44 0.084 2.172 0.107l1.332 0.043 0.203-0.203c0.194-0.194 0.201-0.219 0.159-0.554-0.155-1.238-0.762-2.46-1.714-3.452-0.568-0.592-1.073-0.953-1.828-1.312-0.937-0.444-1.455-0.549-2.963-0.596l-1.29-0.041 2.496-3.053 0.699-0.112c1.844-0.295 4.657-0.596 7.016-0.752 0.594-0.039 2.934-0.086 5.198-0.105l4.117-0.033v-1.019l-4.181 0.034c-4.155 0.033-5.565 0.091-8.027 0.334-1.188 0.116-2.875 0.322-3.652 0.446-0.313 0.050-0.582 0.076-0.599 0.059-0.039-0.039 1.14-3.208 1.428-3.836 0.566-1.237 1.646-2.249 2.95-2.763 0.909-0.358 1.007-0.364 6.779-0.364h5.302v-1.018l-5.357 0.007c-2.946 0.005-5.529 0.032-5.738 0.062zM12.729 7.735c0 0.29 0.028 0.381 0.156 0.509 0.134 0.134 0.215 0.156 0.572 0.156 0.309 0 0.416 0.023 0.416 0.087 0 0.048-0.15 0.275-0.334 0.505l-0.334 0.419-1.685 0.004c-1.573 0.003-1.699-0.005-1.892-0.123-0.572-0.349-0.602-1.137-0.059-1.494 0.274-0.18 1.648-0.387 2.698-0.406l0.461-0.009v0.353zM15.006 13.672c0.916 0.272 1.847 0.84 2.448 1.494 0.542 0.59 1.083 1.56 1.217 2.188l0.045 0.207-0.275-0.001c-1.017-0.004-3.826-0.231-5.012-0.406l-0.541-0.080 0.286-0.088c0.375-0.116 0.897-0.632 1.004-0.991 0.176-0.596 0.052-1.072-0.398-1.522-0.645-0.645-1.457-0.643-2.108 0.005-0.201 0.199-0.344 0.405-0.372 0.534l-0.046 0.21-0.617-0.608 0.586-1.136 1.659 0.029c1.466 0.025 1.714 0.044 2.125 0.166zM22.425 13.548c-0.572 0.138-1.102 0.572-1.364 1.118-0.185 0.384-0.252 1.382-0.132 1.961 0.245 1.179 1.247 2.173 2.411 2.394 0.21 0.040 1.866 0.065 4.276 0.065h3.933v-1.018h-1.017v-1.527h1.017v-1.018h-1.017v-1.018h1.017v-1.018l-4.466 0.006c-2.456 0.004-4.553 0.027-4.658 0.053zM8.728 14.693c0.749 0.233 1.567 0.871 1.951 1.523 0.627 1.065 0.678 2.302 0.14 3.419-0.537 1.116-1.637 1.867-2.89 1.973-0.444 0.037-1.272-0.065-1.334-0.165-0.015-0.025 0.15-0.219 0.366-0.43l0.394-0.385 0.467-0.036c0.925-0.072 1.675-0.585 2.093-1.432 0.224-0.454 0.238-0.515 0.238-1.088 0-0.55-0.019-0.648-0.201-1.032-0.28-0.592-0.64-0.96-1.219-1.246-0.454-0.224-0.514-0.238-1.091-0.238s-0.637 0.014-1.091 0.238c-0.847 0.419-1.36 1.169-1.431 2.094l-0.036 0.467-0.385 0.394c-0.212 0.217-0.406 0.382-0.432 0.366s-0.081-0.234-0.123-0.485c-0.306-1.811 0.921-3.616 2.736-4.028 0.526-0.119 1.294-0.081 1.848 0.091zM23.411 15.016v0.509h-0.763c-0.829 0-0.832-0.001-0.695-0.362 0.163-0.43 0.53-0.649 1.093-0.654l0.365-0.002v0.509zM25.445 15.016v0.509h-1.017v-1.018h1.018v0.509zM27.48 15.016v0.509h-1.017v-1.018h1.017v0.509zM29.515 15.016v0.509h-1.018v-1.018h1.018v0.509zM13.082 15.172c0.316 0.316 0.092 0.862-0.352 0.862-0.124 0-0.254-0.058-0.353-0.156-0.093-0.090-0.152-0.214-0.156-0.352l-0-0.001c0-0.124 0.058-0.254 0.156-0.353s0.229-0.156 0.353-0.156c0.123 0 0.254 0.058 0.352 0.156zM15.365 15.105c0.578-0.252 1.294 0.108 1.406 0.708 0.188 1.002-0.983 1.642-1.697 0.928-0.503-0.503-0.351-1.356 0.29-1.636zM8.159 16.64c0.153 0.054 0.399 0.216 0.546 0.361 0.589 0.577 0.617 1.452 0.065 2.043-0.148 0.159-0.23 0.215-0.203 0.138 0.105-0.302 0.104-0.728-0.004-1.053-0.271-0.818-1.184-1.258-2.034-0.983-0.079 0.026-0.026-0.053 0.14-0.207 0.416-0.389 0.938-0.494 1.49-0.299zM23.411 17.272v0.73l-0.16-0.061c-0.319-0.121-0.513-0.247-0.753-0.487s-0.365-0.434-0.487-0.753l-0.060-0.16h1.459v0.73zM25.445 17.305v0.764h-1.017v-1.527h1.018v0.763zM27.48 17.305v0.764h-1.017v-1.527h1.017v0.763zM29.515 17.305v0.764h-1.018v-1.527h1.018v0.763zM7.456 18.254c0.131 0.131 0.186 0.249 0.186 0.397 0 0.192-0.192 0.402-2.147 2.359s-2.166 2.148-2.357 2.148c-0.289 0-0.582-0.293-0.582-0.582 0-0.192 0.192-0.402 2.147-2.359s2.166-2.148 2.358-2.148c0.148 0 0.266 0.055 0.397 0.186zM15.991 19.691c-0.077 0.054-0.196 0.274-0.272 0.505-0.209 0.627-0.511 0.926-0.937 0.926-0.099 0-0.237 0.040-0.306 0.088-0.107 0.075-0.307 0.075-1.334 0.002-1.633-0.116-1.6-0.117-1.783 0.066l-0.156 0.156v1.486c0 1.727 0.042 1.936 0.482 2.376 0.192 0.192 0.37 0.299 0.61 0.366 0.228 0.064 1.625 0.171 4.268 0.326 3.624 0.214 3.941 0.224 4.084 0.13 0.085-0.056 0.173-0.175 0.196-0.264 0.060-0.241-1.012-3.967-1.182-4.108-0.087-0.072-0.317-0.119-0.735-0.151-0.578-0.044-0.611-0.054-0.697-0.221-0.099-0.191-0.212-0.255-0.453-0.255-0.401 0-0.717-0.315-0.91-0.906-0.149-0.455-0.302-0.62-0.575-0.62-0.112 0.006-0.214 0.041-0.301 0.097l0.002-0.001zM16.419 21.539c0.068 0.081 0.064 0.117-0.024 0.204-0.099 0.099-0.113 0.099-0.212 0-0.087-0.087-0.091-0.123-0.023-0.204 0.045-0.054 0.104-0.099 0.13-0.099s0.085 0.045 0.13 0.099zM21.523 21.796l0.165-0.165h9.861v1.018h-4.546c-5.209 0-4.666-0.081-4.398 0.657 0.21 0.577 0.427 0.923 0.843 1.339v0c0.442 0.442 1 0.767 1.648 0.931 0.462 0.118 0.706 0.127 3.475 0.127h2.978v1.025l-6.454-0.042-0.508-0.172c-0.736-0.248-1.266-0.582-1.844-1.161-0.825-0.826-1.258-1.747-1.344-2.859-0.039-0.513-0.035-0.538 0.124-0.697zM14.064 22.298c1.496 0.106 1.423 0.072 1.654 0.766 0.145 0.437 0.303 0.603 0.572 0.603 0.266 0 0.426-0.167 0.568-0.588 0.205-0.612 0.125-0.574 1.102-0.522 0.473 0.025 0.895 0.067 0.937 0.093 0.078 0.048 0.783 2.418 0.734 2.468-0.024 0.024-3.078-0.142-5.661-0.309-0.287-0.022-0.681-0.043-1.077-0.057l-0.057-0.002c-0.183-0.001-0.289-0.048-0.43-0.188l-0.186-0.186v-2.172l0.27 0.001c0.149 0 0.856 0.042 1.573 0.093zM11.6 27.451c0.514 0.242 1.17 0.388 2.877 0.639 0.63 0.093 1.18 0.179 1.224 0.192 0.059 0.018 0.079 0.296 0.079 1.11 0 1.068-0.003 1.089-0.156 1.242l-0.156 0.156h-4.463l-0.156-0.156-0.156-0.156v-3.583l0.222 0.17c0.122 0.093 0.43 0.267 0.684 0.386z"></path>
<path fill="#db3138" style="fill: var(--color2, #db3138)" d="M3.221 8.048c-0.086 0.086-0.156 0.209-0.156 0.273 0 0.196-0.189 0.859-0.325 1.141-0.311 0.646-0.933 1.193-1.614 1.42-0.439 0.146-0.605 0.303-0.605 0.572 0 0.262 0.166 0.429 0.533 0.536 1.023 0.297 1.803 1.259 1.987 2.45 0.119 0.77 0.945 0.77 1.064 0 0.184-1.191 0.965-2.153 1.988-2.451 0.367-0.107 0.533-0.274 0.533-0.535 0-0.27-0.166-0.427-0.605-0.573-0.682-0.227-1.304-0.774-1.614-1.42-0.135-0.282-0.324-0.945-0.324-1.14 0-0.188-0.286-0.43-0.508-0.43-0.124 0-0.254 0.058-0.352 0.156zM3.785 10.404c0.099 0.157 0.368 0.457 0.597 0.668l0.417 0.383-0.417 0.382c-0.229 0.21-0.498 0.511-0.597 0.668s-0.195 0.286-0.212 0.286c-0.018 0-0.113-0.128-0.212-0.286s-0.368-0.457-0.598-0.668l-0.417-0.382 0.417-0.383c0.23-0.21 0.498-0.511 0.598-0.668s0.194-0.286 0.212-0.286c0.018 0 0.113 0.128 0.212 0.286z"></path>
</symbol>
<symbol id="icon-checklist" viewBox="0 0 32 32">
<path fill="#fff" style="fill: var(--color1, #fff)" d="M4.011 0.082c-0.317 0.1-0.857 0.659-0.954 0.987-0.114 0.387-0.114 29.472 0 29.859 0.105 0.354 0.64 0.889 0.994 0.993 0.203 0.060 2.553 0.079 10.032 0.079h9.766l4.938-4.938v-12.864c0-9.751-0.018-12.925-0.076-13.12-0.042-0.141-0.202-0.395-0.356-0.566-0.505-0.562 0.618-0.517-12.5-0.509-8.273 0.005-11.683 0.027-11.845 0.078zM27.596 1.188l0.159 0.158v24.976h-1.654c-1.11 0-1.742 0.026-1.92 0.078-0.354 0.105-0.889 0.64-0.993 0.994-0.053 0.178-0.079 0.809-0.079 1.92v1.654h-18.781l-0.317-0.317v-29.305l0.317-0.316h23.11l0.158 0.158zM12.56 2.153c-0.786 0.201-0.954 0.318-2.839 1.974-0.816 0.717-1.571 1.359-1.678 1.426-0.121 0.070-0.264 0.115-0.417 0.122l-0.002 0c-0.285 0.001-0.814 0.247-1.058 0.49-0.103 0.103-0.257 0.339-0.343 0.525-0.153 0.33-0.156 0.371-0.136 1.742 0.021 1.393 0.022 1.407 0.2 1.745 0.238 0.453 0.617 0.81 1.049 0.988 0.229 0.095 0.352 0.184 0.352 0.255 0 0.059 0.102 0.312 0.227 0.561 0.949 1.896 3.63 1.899 4.578 0.004 0.126-0.251 0.229-0.496 0.229-0.545 0-0.073 0.453-0.088 2.646-0.088s2.645 0.015 2.645 0.088c0 0.048 0.102 0.292 0.227 0.541 0.949 1.896 3.63 1.899 4.578 0.004 0.125-0.251 0.229-0.496 0.229-0.545 0-0.069 0.144-0.088 0.654-0.088 0.359 0 0.773-0.035 0.919-0.079 0.355-0.105 0.889-0.639 0.994-0.993 0.051-0.175 0.078-0.774 0.078-1.751 0-1.32-0.013-1.501-0.113-1.623-0.085-0.103-0.563-0.266-1.912-0.65-0.99-0.282-1.805-0.521-1.813-0.532l-0.975-1.372c-0.529-0.745-1.074-1.466-1.21-1.604s-0.442-0.341-0.677-0.453l-0.429-0.203-2.839-0.012c-2.128-0.009-2.92 0.008-3.162 0.070zM14.85 4.352v1.258h-2.626c-2.232 0-2.613-0.013-2.533-0.089 0.551-0.517 2.384-2.070 2.539-2.151 0.42-0.219 0.722-0.268 1.669-0.272l0.952-0.004v1.258zM18.56 3.248c0.396 0.187 0.433 0.228 1.288 1.427l0.689 0.968-1.86 0.020c-1.023 0.011-2.070 0.001-2.327-0.021l-0.468-0.041v-2.506l1.178 0c1.102 0.001 1.198 0.010 1.5 0.153zM22.439 6.977l0.911 0.261-0.105 0.202c-0.161 0.314-0.137 0.921 0.050 1.223 0.215 0.349 0.565 0.56 1 0.605l0.362 0.037v0.349c0 0.284-0.029 0.378-0.159 0.507-0.147 0.147-0.204 0.158-0.806 0.158-0.505 0-0.648-0.020-0.648-0.088 0-0.048-0.102-0.292-0.226-0.541-0.275-0.55-0.663-0.923-1.246-1.199-0.39-0.185-0.49-0.204-1.044-0.204s-0.654 0.020-1.044 0.204c-0.583 0.276-0.971 0.649-1.246 1.199-0.125 0.249-0.227 0.492-0.227 0.541 0 0.073-0.453 0.088-2.645 0.088s-2.646-0.015-2.646-0.088c0-0.048-0.102-0.292-0.226-0.541-0.276-0.55-0.663-0.923-1.246-1.199-0.39-0.185-0.49-0.204-1.044-0.204s-0.654 0.020-1.044 0.204c-0.237 0.112-0.56 0.323-0.717 0.467-0.283 0.261-0.691 0.927-0.691 1.128 0 0.138-0.077 0.131-0.273-0.023-0.245-0.192-0.372-0.521-0.372-0.959v-0.389l0.344-0.158c0.632-0.289 1.085-0.911 1.181-1.62l0.043-0.316 12.853 0.092 0.911 0.261zM7.6 6.912c-0.043 0.216-0.327 0.635-0.43 0.635-0.079 0-0.079-0.268 0-0.476 0.049-0.128 0.319-0.346 0.447-0.36 0.014-0.002 0.006 0.089-0.016 0.201zM10.721 7.74v-0.517h1.549v1.033h-1.548v-0.517zM16.915 7.74v-0.517h1.548v1.033h-1.548v-0.517zM24.658 7.998c0 0.24-0.013 0.258-0.181 0.258-0.202 0-0.336-0.102-0.336-0.258s0.134-0.258 0.336-0.258c0.168 0 0.181 0.018 0.181 0.258zM10.682 9.367c0.554 0.164 1.072 0.874 1.072 1.47 0 0.8-0.749 1.548-1.549 1.548s-1.548-0.749-1.548-1.548c0-0.405 0.148-0.733 0.482-1.067 0.453-0.454 0.94-0.581 1.543-0.402zM21.005 9.367c0.555 0.164 1.072 0.874 1.072 1.47 0 0.8-0.749 1.548-1.548 1.548s-1.548-0.749-1.548-1.548c0-0.405 0.147-0.733 0.481-1.067 0.453-0.454 0.94-0.581 1.543-0.402zM9.689 10.837v-0.516h1.033v1.032h-1.033v-0.516zM20.012 10.837v-0.516h1.032v1.032h-1.032v-0.516zM20.464 14.805l-0.675 0.678h-3.073l-0.159 0.158-0.158 0.159v3.496l0.317 0.317h3.496l0.158-0.159 0.159-0.158v-3.073l0.677-0.675c0.373-0.371 0.677-0.706 0.677-0.743 0-0.085-0.595-0.676-0.681-0.676-0.035 0-0.367 0.305-0.738 0.678zM11.238 16.515v-0.517h4.129v1.033h-4.129v-0.517zM22.593 16.515v-0.517h4.129v1.033h-4.129v-0.517zM18.445 16.823c-0.167 0.17-0.301 0.337-0.297 0.371s0.165 0.206 0.357 0.38l0.35 0.318 0.641-0.631v1.318h-2.065v-2.065h1.318l-0.304 0.309zM10.205 18.58v-0.516h5.162v1.032h-5.162v-0.516zM21.561 18.58v-0.516h5.162v1.032h-5.162v-0.516zM9.108 19.967l-0.675 0.677h-3.073l-0.158 0.159-0.159 0.158v3.496l0.317 0.317h3.496l0.159-0.158 0.158-0.159v-3.073l0.678-0.675c0.373-0.371 0.678-0.705 0.678-0.743 0-0.085-0.595-0.677-0.681-0.677-0.035 0-0.367 0.305-0.738 0.677zM20.464 19.967l-0.675 0.677h-3.073l-0.317 0.317v3.496l0.158 0.159 0.159 0.158h3.496l0.317-0.317v-3.073l0.677-0.675c0.373-0.371 0.677-0.705 0.677-0.743 0-0.085-0.595-0.677-0.681-0.677-0.035 0-0.367 0.305-0.738 0.677zM11.238 21.677v-0.517h4.129v1.033h-4.129v-0.517zM22.593 21.677v-0.517h4.129v1.033h-4.129v-0.517zM7.089 21.985c-0.167 0.17-0.301 0.336-0.297 0.371s0.165 0.206 0.357 0.381l0.35 0.318 0.32-0.316 0.321-0.315v1.317h-2.065v-2.064h1.318l-0.304 0.309zM18.445 21.985c-0.167 0.17-0.3 0.336-0.297 0.371 0.005 0.034 0.165 0.206 0.358 0.381l0.35 0.318 0.32-0.316 0.321-0.315v1.317h-2.065v-2.064h1.318l-0.304 0.309zM10.205 23.741v-0.517h5.162v1.033h-5.162v-0.517zM21.561 23.741v-0.517h5.162v1.033h-5.162v-0.517zM9.108 25.129l-0.675 0.677h-3.073l-0.158 0.159-0.159 0.158v3.496l0.159 0.158 0.158 0.159h3.496l0.317-0.317v-3.073l0.678-0.675c0.373-0.372 0.678-0.706 0.678-0.743 0-0.085-0.595-0.677-0.681-0.677-0.035 0-0.367 0.305-0.738 0.678zM11.238 26.838v-0.516h4.129v1.032h-4.129v-0.516zM7.089 27.147c-0.167 0.17-0.301 0.337-0.297 0.371s0.165 0.206 0.357 0.38l0.35 0.318 0.641-0.631v1.317h-2.065v-2.064h1.318l-0.304 0.309zM26.981 27.371c0 0.009-0.639 0.655-1.419 1.435l-1.419 1.418v-1.276c0-1.714-0.119-1.594 1.578-1.594 0.694 0 1.261 0.007 1.261 0.016zM10.205 28.903v-0.517h5.162v1.033h-5.162v-0.517z"></path>
<path fill="#db3138" style="fill: var(--color2, #db3138)" d="M9.108 14.805l-0.675 0.678h-3.073l-0.159 0.158-0.158 0.159v3.496l0.317 0.317h3.496l0.317-0.317v-3.073l0.678-0.675c0.373-0.371 0.678-0.706 0.678-0.743 0-0.085-0.595-0.677-0.681-0.677-0.035 0-0.367 0.305-0.738 0.678zM7.089 16.823c-0.167 0.17-0.301 0.337-0.297 0.371s0.165 0.206 0.357 0.38l0.35 0.318 0.641-0.631v1.317h-2.065v-2.064h1.318l-0.304 0.309z"></path>
<path fill="#db3138" style="fill: var(--color2, #db3138)" d="M9.108 19.969l-0.675 0.677h-3.073l-0.159 0.158-0.158 0.159v3.496l0.317 0.317h3.496l0.317-0.317v-3.073l0.678-0.675c0.373-0.371 0.678-0.706 0.678-0.743 0-0.085-0.595-0.677-0.681-0.677-0.035 0-0.367 0.305-0.738 0.678zM7.089 21.988c-0.167 0.17-0.301 0.337-0.297 0.371s0.165 0.206 0.357 0.38l0.35 0.318 0.641-0.631v1.318h-2.065v-2.065h1.318l-0.304 0.309z"></path>
<path fill="#db3138" style="fill: var(--color2, #db3138)" d="M9.108 25.131l-0.675 0.677h-3.073l-0.158 0.159-0.159 0.158v3.496l0.317 0.317h3.496l0.159-0.158 0.158-0.159v-3.073l0.678-0.675c0.373-0.371 0.678-0.706 0.678-0.743 0-0.085-0.595-0.676-0.681-0.676-0.034 0-0.367 0.305-0.738 0.677zM7.089 27.15c-0.167 0.17-0.301 0.336-0.297 0.371s0.165 0.206 0.357 0.381l0.35 0.318 0.32-0.316 0.321-0.315v1.317h-2.065v-2.064h1.318l-0.304 0.309zM20.451 19.969l-0.675 0.677h-3.073l-0.158 0.158-0.158 0.159v3.496l0.158 0.158 0.158 0.159h3.496l0.158-0.159 0.158-0.158v-3.073l0.677-0.675c0.373-0.371 0.677-0.706 0.677-0.743 0-0.085-0.594-0.677-0.681-0.677-0.035 0-0.367 0.305-0.739 0.678zM18.432 21.988c-0.167 0.17-0.301 0.337-0.297 0.371s0.165 0.206 0.357 0.38l0.35 0.318 0.641-0.631v1.318h-2.064v-2.065h1.318l-0.304 0.309z"></path>
<path fill="#db3138" style="fill: var(--color2, #db3138)" d="M20.451 14.808l-0.675 0.678h-3.073l-0.158 0.158-0.158 0.159v3.496l0.158 0.158 0.158 0.159h3.496l0.158-0.159 0.158-0.158v-3.073l0.677-0.675c0.373-0.371 0.677-0.706 0.677-0.743 0-0.085-0.594-0.677-0.681-0.677-0.035 0-0.367 0.305-0.739 0.678zM18.432 16.826c-0.167 0.17-0.301 0.337-0.297 0.371s0.165 0.206 0.357 0.38l0.35 0.318 0.641-0.631v1.318h-2.064v-2.065h1.318l-0.304 0.309z"></path>
</symbol>
<symbol id="icon-car-wash" viewBox="0 0 32 32">
<path fill="#fff" style="fill: var(--color1, #fff)" d="M23.677 4.214c-1.484 0.933-1.922 1.178-2.271 1.27l-0.432 0.114-2.327-0.283c-2.61-0.318-2.989-0.322-4.083-0.043-0.346 0.088-0.853 0.272-1.128 0.41s-1.801 1.090-3.392 2.118c-2.969 1.92-3.125 2.041-3.239 2.514-0.024 0.099-0.15 0.249-0.294 0.349-0.138 0.096-0.34 0.309-0.447 0.472-0.351 0.532-0.386 0.772-0.386 2.616v1.674h-5.677v1.037h8.296c4.562 0 8.284 0.022 8.271 0.048-0.471 0.922-0.748 1.68-0.933 2.545-0.162 0.761-0.159 2.406 0.005 3.174 0.735 3.437 3.37 6.007 6.744 6.578 4.56 0.771 8.843-2.391 9.526-7.034 0.26-1.768-0.053-3.429-0.99-5.263-0.014-0.026 0.224-0.048 0.529-0.048h0.554v-1.037h-1.802l-0.548-0.571c-1.649-1.719-3.948-2.642-6.263-2.514-0.426 0.023-0.869 0.059-0.984 0.080-0.198 0.036-0.21 0.027-0.21-0.154 0-0.169 0.032-0.201 0.274-0.273 0.478-0.142 1.226-0.573 1.726-0.994 0.266-0.224 1.34-0.944 2.387-1.599s1.939-1.223 1.983-1.263c0.061-0.056 0.021-0.168-0.182-0.502l-0.261-0.43-2.766 1.73c-0.692 0.432-1.415 0.923-1.607 1.091-0.573 0.5-1.14 0.838-1.735 1.033-0.515 0.17-0.637 0.185-1.465 0.179-0.758-0.005-1.065-0.040-1.904-0.217-0.847-0.179-1.198-0.219-2.29-0.258-0.71-0.026-1.367-0.079-1.461-0.119-0.325-0.137-0.83-0.677-0.83-0.887 0-0.020 0.784-0.036 1.742-0.036h1.742v-1.037h-4.263l-2.262 1.262c-2.383 1.328-2.677 1.451-3.018 1.258-0.229-0.129-0.317-0.407-0.196-0.619 0.090-0.157 5.332-3.599 5.998-3.939 0.623-0.317 1.58-0.553 2.254-0.556 0.198-0.001 1.367 0.122 2.599 0.273 3.102 0.38 2.859 0.436 5.606-1.278 0.901-0.562 1.675-1.055 1.718-1.095 0.062-0.057 0.025-0.162-0.169-0.479-0.136-0.223-0.259-0.416-0.273-0.428s-0.853 0.498-1.864 1.134zM5.968 4.090c-0.173 0.099-0.201 0.149-0.359 0.62-0.163 0.486-0.425 0.774-0.757 0.828-0.402 0.067-0.58 0.163-0.66 0.357-0.156 0.38 0.070 0.661 0.599 0.744 0.378 0.059 0.635 0.334 0.817 0.872 0.165 0.489 0.311 0.651 0.585 0.651 0.272 0 0.433-0.169 0.58-0.613 0.076-0.23 0.199-0.496 0.274-0.591 0.152-0.195 0.478-0.352 0.728-0.352 0.231 0 0.483-0.271 0.483-0.519 0-0.267-0.251-0.519-0.517-0.519-0.45 0-0.754-0.296-0.968-0.944-0.185-0.558-0.453-0.736-0.806-0.535zM6.32 5.988c0.061 0.075 0.059 0.123-0.015 0.227-0.092 0.132-0.093 0.132-0.208 0.004-0.095-0.105-0.101-0.146-0.034-0.227 0.101-0.123 0.158-0.123 0.257-0.004zM2.341 9.279c-0.083 0.040-0.188 0.196-0.251 0.368-0.304 0.848-0.445 1.006-0.976 1.106-0.31 0.058-0.598 0.297-0.598 0.496 0 0.205 0.198 0.478 0.372 0.514 0.711 0.146 0.885 0.295 1.107 0.938 0.161 0.469 0.321 0.648 0.578 0.648 0.28 0 0.439-0.166 0.587-0.612 0.076-0.23 0.199-0.496 0.274-0.592 0.152-0.195 0.478-0.352 0.728-0.352 0.231 0 0.483-0.27 0.483-0.519 0-0.267-0.251-0.518-0.517-0.518-0.45 0-0.754-0.296-0.968-0.944-0.187-0.562-0.432-0.722-0.82-0.534zM13.082 10.16c-0.040-0.119-0.14-0.128-0.278-0.023-0.12 0.091-0.115 0.096 0.089 0.098 0.138 0.001 0.206-0.025 0.19-0.075zM2.707 11.174c0.062 0.075 0.058 0.123-0.014 0.227-0.092 0.132-0.093 0.132-0.208 0.004-0.095-0.105-0.101-0.146-0.034-0.227 0.102-0.123 0.158-0.124 0.256-0.004zM14.368 11.514l0.482 0.24 1.365 0.048c1.167 0.040 1.502 0.076 2.301 0.248 0.631 0.135 1.214 0.214 1.79 0.242l0.855 0.041v0.21c0 0.175-0.029 0.217-0.177 0.254-0.363 0.091-1.486 0.683-2.022 1.067-0.305 0.219-0.809 0.659-1.121 0.979l-0.566 0.582h-10.565v-1.657c0-1.402 0.016-1.688 0.105-1.864 0.143-0.283 0.143-0.283 0.254-0.123 0.172 0.247 0.644 0.477 1.053 0.514 0.517 0.047 1.082-0.136 1.943-0.628l0.677-0.387 3.143-0.005 0.482 0.24zM16 12.83v-0.519h1.033v1.037h-1.033v-0.518zM24.872 13.445c3.010 0.491 5.326 2.752 5.978 5.837 0.106 0.502 0.106 2.156 0 2.658-0.633 2.991-2.809 5.178-5.785 5.814-0.5 0.107-2.146 0.107-2.645 0-2.242-0.479-4.041-1.817-5.050-3.756-1.117-2.148-1.134-4.518-0.047-6.693 1.383-2.768 4.493-4.358 7.55-3.86zM9.29 14.387v-0.519h1.032v1.037h-1.032v-0.519z"></path>
<path fill="#db3138" style="fill: var(--color2, #db3138)" d="M18.773 17.142l-0.16 0.324v3.145c0 3.134 0 3.146 0.146 3.438 0.229 0.462 0.489 0.735 0.93 0.975l0.408 0.222h7.742l0.328-0.174c0.754-0.4 1.010-0.939 1.191-2.511 0.142-1.234-0.026-1.923-0.594-2.438-0.422-0.383-0.777-0.516-1.377-0.514-0.582 0.001-0.936 0.134-1.339 0.506l-0.23 0.213-0.021-1.43-0.021-1.431-0.221-0.41c-0.239-0.442-0.511-0.704-0.971-0.934-0.282-0.142-0.359-0.147-2.26-0.158-1.082-0.006-2.055 0.010-2.161 0.037-0.586 0.149-1.113 0.582-1.388 1.142zM28.29 22.783c-0.124 0.831-0.185 1.007-0.424 1.238l-0.197 0.189-1.67 0.019c-1.428 0.016-1.7 0.005-1.87-0.084-0.402-0.209-0.498-0.818-0.176-1.119 0.079-0.074 0.445-0.255 0.812-0.401 1.183-0.472 1.335-0.588 1.673-1.267 0.208-0.418 0.344-0.572 0.596-0.673 0.255-0.102 0.517-0.082 0.813 0.061 0.526 0.256 0.635 0.755 0.443 2.038zM24.298 17.146c0.098 0.073 0.238 0.214 0.311 0.312 0.127 0.17 0.134 0.277 0.152 2.111l0.018 1.932-0.535 0.215c-0.716 0.287-0.972 0.457-1.205 0.795-0.316 0.462-0.413 1.145-0.23 1.62 0.043 0.111-0.022 0.117-1.249 0.097-1.418-0.022-1.462-0.033-1.783-0.466-0.129-0.174-0.134-0.268-0.153-2.978-0.011-1.54-0.002-2.894 0.019-3.008 0.047-0.26 0.318-0.591 0.578-0.707 0.153-0.068 0.607-0.084 2.047-0.072 1.755 0.014 1.859 0.022 2.028 0.149z"></path>
</symbol>
<symbol id="icon-arrow-r" viewBox="0 0 32 32">
<path fill="#db3138" style="fill: var(--color2, #db3138)" d="M15.935 1.912l-14.022 14.022 14.022 14.023 14.023-14.023-14.023-14.022zM31.87 15.935l-15.935 15.935-15.935-15.935 15.935-15.935 15.935 15.935z"></path>
<path fill="#fff" style="fill: var(--color1, #fff)" d="M14.292 12.554l3.38 3.38-3.38 3.38 0.676 1.352 4.732-4.732-4.732-4.732-0.676 1.352z"></path>
</symbol>
<symbol id="icon-arrow-l" viewBox="0 0 32 32">
<path fill="#db3138" style="fill: var(--color2, #db3138)" d="M15.935 1.912l14.023 14.022-14.023 14.023-14.022-14.023 14.022-14.022zM0 15.935l15.935 15.935 15.935-15.935-15.935-15.935-15.935 15.935z"></path>
<path fill="#fff" style="fill: var(--color1, #fff)" d="M17.577 12.554l-3.38 3.38 3.38 3.38-0.676 1.352-4.732-4.732 4.732-4.732 0.676 1.352z"></path>
</symbol>
<symbol id="icon-dots" viewBox="0 0 294 32">
<path fill="#db3138" style="fill: var(--color1, #db3138)" d="M0 16l14.142-14.142 14.142 14.142-14.14 14.142-14.144-14.142zM88.142 16l14.142-14.142 14.142 14.142-14.14 14.142-14.146-14.142zM176.284 16l14.142-14.142 14.142 14.142-14.14 14.142-14.146-14.142zM264.426 16l14.142-14.142 14.142 14.142-14.142 14.142-14.142-14.142z"></path>
</symbol>
<symbol id="icon-achievements" viewBox="0 0 26 32">
<path fill="#fff" style="fill: var(--color1, #fff)" d="M4.964 0.494c-0.568 0.195-1.003 0.644-1.174 1.209l-0.003 0.013c-0.050 0.168-0.088 0.552-0.088 0.897v0.602l-1.158 0.021c-1.324 0.023-1.524 0.077-1.992 0.545-0.51 0.511-0.634 1.114-0.498 2.419 0.234 2.246 1.001 3.983 2.298 5.206 0.675 0.637 1.499 1.13 2.278 1.363 0.252 0.076 0.297 0.12 0.454 0.441 0.506 1.036 1.366 2.294 2.199 3.22 0.473 0.526 1.377 1.332 2.069 1.845 0.625 0.464 0.788 0.63 0.967 0.991 0.141 0.282 0.145 0.342 0.163 2.209l0.019 1.918-0.463 0.23c-0.736 0.363-1.192 0.97-1.343 1.785l-0.074 0.402-0.531 0.026c-0.639 0.033-0.995 0.174-1.365 0.543-0.518 0.518-0.522 0.543-0.543 3.006l-0.019 2.173 0.183 0.205 0.184 0.205 12.787 0.033 0.202-0.181 0.203-0.181v-2.212c0-2.134-0.005-2.223-0.133-2.5-0.109-0.209-0.24-0.389-0.393-0.547l0.001 0.001c-0.369-0.369-0.726-0.511-1.361-0.543l-0.528-0.026-0.077-0.406c-0.157-0.826-0.647-1.454-1.419-1.819l-0.39-0.184 0.019-1.922c0.019-1.871 0.024-1.93 0.164-2.212 0.179-0.36 0.341-0.527 0.967-0.991 1.795-1.332 3.205-2.984 4.179-4.899 0.253-0.495 0.28-0.527 0.544-0.607 0.787-0.239 1.656-0.761 2.305-1.388 1.287-1.242 2.037-2.954 2.269-5.183 0.136-1.306 0.012-1.909-0.499-2.419-0.466-0.466-0.668-0.522-1.985-0.545l-1.151-0.020-0.024-0.721c-0.019-0.565-0.052-0.783-0.154-1.007-0.166-0.366-0.568-0.769-0.936-0.939l-0.287-0.132-7.779-0.014c-7.254-0.015-7.802-0.008-8.090 0.093zM20.786 1.822l0.171 0.171-0.002 3.256c-0.001 3.574-0.013 3.72-0.404 5.194-0.323 1.217-0.952 2.623-1.619 3.619-0.772 1.153-1.929 2.353-3.133 3.247-0.75 0.557-1.007 0.829-1.259 1.333-0.321 0.639-0.344 0.856-0.344 3.273v2.24l0.17 0.187c0.131 0.144 0.254 0.202 0.54 0.253 0.599 0.106 1.021 0.483 1.114 0.998l0.042 0.231h-6.202l0.042-0.231c0.094-0.514 0.541-0.92 1.084-0.984 0.234-0.028 0.383-0.088 0.519-0.209l0.191-0.17 0.017-2.264c0.019-2.458-0.001-2.669-0.329-3.32-0.255-0.507-0.51-0.778-1.261-1.336-1.203-0.895-2.365-2.099-3.133-3.247-0.655-0.981-1.304-2.429-1.618-3.613-0.393-1.482-0.404-1.624-0.406-5.195-0.001-3.165 0.002-3.254 0.122-3.388 0.068-0.077 0.179-0.161 0.247-0.189s3.534-0.046 7.702-0.039l7.578 0.012 0.171 0.171zM3.699 6.115c0 2.212 0.136 3.501 0.501 4.725 0.070 0.233 0.113 0.435 0.099 0.45-0.059 0.058-0.962-0.606-1.29-0.95-1.084-1.135-1.715-2.894-1.741-4.84-0.007-0.576 0.007-0.673 0.115-0.794 0.195-0.218 0.311-0.239 1.343-0.243l0.973-0.003v1.656zM24.491 4.661c0.167 0.168 0.17 0.189 0.162 0.835-0.024 1.95-0.655 3.707-1.739 4.844-0.328 0.344-1.231 1.009-1.29 0.95-0.015-0.015 0.030-0.217 0.099-0.45 0.365-1.224 0.501-2.513 0.501-4.728v-1.66l2.097 0.039 0.171 0.172zM18.316 27.26l0.171 0.171 0.019 1.666 0.018 1.665h-11.126l0.018-1.661c0.017-1.56 0.026-1.67 0.142-1.798 0.067-0.076 0.179-0.16 0.247-0.189s2.422-0.046 5.231-0.039l5.108 0.012 0.171 0.171zM10.269 28.354c0.071-0.028 0.748-0.054 1.503-0.056l1.373-0.004 0.2 0.179c0.166 0.147 0.2 0.223 0.2 0.438s-0.035 0.29-0.204 0.441l-0.204 0.182-2.904-0.037-0.179-0.202c-0.11-0.123-0.181-0.271-0.181-0.378 0-0.2 0.2-0.486 0.394-0.564zM15.208 28.355c0.237-0.095 0.404-0.063 0.607 0.119 0.166 0.147 0.2 0.223 0.2 0.438s-0.034 0.29-0.207 0.445c-0.175 0.157-0.243 0.179-0.431 0.15-0.279-0.045-0.563-0.342-0.563-0.589 0-0.2 0.2-0.486 0.394-0.564z"></path>
<path fill="#db3138" style="fill: var(--color2, #db3138)" d="M12.843 4.134c-0.325 0.090-0.395 0.192-0.999 1.435-0.35 0.751-0.563 1.173-0.78 1.592l0.144-0.305c-0.012 0.012-0.586 0.102-1.277 0.2s-1.357 0.207-1.48 0.243c-0.274 0.077-0.424 0.289-0.424 0.6 0 0.219 0.062 0.294 1.046 1.273l1.045 1.041-0.238 1.396c-0.212 1.245-0.229 1.418-0.154 1.595 0.045 0.109 0.139 0.228 0.207 0.265 0.297 0.159 0.539 0.081 1.784-0.577l1.219-0.645 1.242 0.645c1.37 0.71 1.576 0.765 1.847 0.495 0.082-0.082 0.165-0.214 0.184-0.294s-0.071-0.761-0.201-1.516l-0.237-1.372 1.032-1.030c0.661-0.661 1.043-1.089 1.062-1.192 0.049-0.25-0.109-0.548-0.341-0.65-0.111-0.049-0.718-0.161-1.346-0.25-0.746-0.097-1.195-0.166-1.641-0.239l0.326 0.044c-0.153-0.030-0.241-0.172-0.815-1.32-0.355-0.707-0.673-1.304-0.71-1.327-0.12-0.074-0.4-0.136-0.494-0.11zM13.384 7.039c0.221 0.431 0.47 0.829 0.556 0.89 0.125 0.090 1.53 0.352 1.933 0.36 0.041 0-0.253 0.317-0.652 0.703-0.415 0.401-0.618 0.578-0.69 0.798-0.075 0.224-0.015 0.493 0.088 1.091 0.067 0.391 0.123 0.758 0.123 0.817 0 0.084-0.169 0.018-0.823-0.324-0.453-0.237-0.901-0.431-0.996-0.431s-0.544 0.196-0.998 0.436c-0.454 0.24-0.826 0.408-0.826 0.372s0.070-0.456 0.153-0.936c0.134-0.762 0.143-0.896 0.070-1.066-0.045-0.108-0.366-0.47-0.712-0.804s-0.619-0.619-0.606-0.632c0.013-0.013 0.424-0.081 0.914-0.152 0.49-0.070 0.951-0.167 1.024-0.214s0.317-0.466 0.542-0.931c0.225-0.465 0.429-0.825 0.454-0.801s0.225 0.395 0.447 0.824z"></path>
<path fill="#db3138" style="fill: var(--color2, #db3138)" d="M16.177 28.973c0 0.375-0.304 0.679-0.679 0.679s-0.679-0.304-0.679-0.679v0c0-0.375 0.304-0.679 0.679-0.679s0.679 0.304 0.679 0.679v0z"></path>
</symbol>
</defs>
</svg>
